<svg width="247" height="50" fill="none" xmlns="http://www.w3.org/2000/svg">
    <g clip-path="url(#a)">
        <path d="M14.103 35.323a5.661 5.661 0 0 0-5.667-5.656 5.661 5.661 0 0 0-5.666 5.656 5.661 5.661 0 0 0 6.157 5.635 5.476 5.476 0 0 1 .004-.948 4.718 4.718 0 0 1-5.218-4.687 4.718 4.718 0 0 1 4.723-4.713 4.717 4.717 0 0 1 4.722 4.712 4.714 4.714 0 0 1-3.253 4.481 4.958 4.958 0 0 0-.043.996 5.662 5.662 0 0 0 4.24-5.477" fill="#0081C8"/>
        <path d="M38.66 35.323a5.661 5.661 0 0 1-5.668 5.657 5.665 5.665 0 0 1-5.646-5.16c.337.035.664.105.977.206a4.719 4.719 0 0 0 4.669 4.01 4.717 4.717 0 0 0 4.722-4.713 4.717 4.717 0 0 0-4.722-4.713 4.718 4.718 0 0 0-4.713 4.422 5.767 5.767 0 0 0-.937-.16 5.665 5.665 0 0 1 5.65-5.206 5.661 5.661 0 0 1 5.668 5.657" fill="#EE334E"/>
        <path d="M26.853 35.794a4.72 4.72 0 0 1 4.67 4.01c.312.102.638.172.974.207a5.66 5.66 0 0 0-6.134-5.138 6.28 6.28 0 0 1-.002.946c.162-.016.326-.025.492-.025m4.714 5.005a4.72 4.72 0 0 1-4.714 4.422 4.717 4.717 0 0 1-4.722-4.713 4.716 4.716 0 0 1 3.254-4.48 4.947 4.947 0 0 0 .042-.994 5.658 5.658 0 0 0-4.24 5.474 5.66 5.66 0 0 0 5.666 5.655 5.663 5.663 0 0 0 5.65-5.204 5.598 5.598 0 0 1-.936-.16" fill="#00A651"/>
        <path d="M14.08 35.82a5.597 5.597 0 0 0 .006-.948 5.664 5.664 0 0 1 6.135 5.138 4.494 4.494 0 0 1-.976-.206 4.719 4.719 0 0 0-5.164-3.984m6.143 5.138a5.662 5.662 0 0 1-5.649 5.205 5.661 5.661 0 0 1-5.666-5.654 5.662 5.662 0 0 1 4.24-5.477 4.724 4.724 0 0 1-.042.996 4.715 4.715 0 0 0-3.254 4.48 4.717 4.717 0 0 0 4.722 4.713A4.72 4.72 0 0 0 19.29 40.8c.302.077.614.13.935.158" fill="#FCB131"/>
        <path d="M20.714 29.668a5.664 5.664 0 0 0-5.65 5.205c.321.028.635.081.937.16a4.718 4.718 0 0 1 4.713-4.423 4.72 4.72 0 0 1 4.723 4.714 4.712 4.712 0 0 1-3.253 4.479 4.66 4.66 0 0 0-.044.995 5.66 5.66 0 0 0 4.242-5.474 5.661 5.661 0 0 0-5.668-5.656Zm0 10.369a4.722 4.722 0 0 1-4.67-4.01 4.626 4.626 0 0 0-.974-.206 5.66 5.66 0 0 0 6.134 5.136 5.48 5.48 0 0 1 .004-.946 4.818 4.818 0 0 1-.494.026Z" fill="#000"/>
        <path d="M40.738 0H0v26.838h41.424V0h-.686Z" fill="#fff"/>
        <path d="M40.736.685H17.319v1.959h23.418V.685ZM40.736 4.603H17.319v1.959h23.418V4.603ZM40.736 8.502H17.319v1.958h23.418V8.502ZM40.736 12.425H17.319v1.956h23.418v-1.956ZM40.737 16.347H.687v1.958h40.05v-1.958ZM40.737 20.245H.687v1.957h40.05v-1.957ZM40.737 24.197H.687v1.957h40.05v-1.957Z" fill="#C42032"/>
        <path d="M17.319.685H.686v13.696H17.32V.685Z" fill="#152C53"/>
        <path d="M3.254 3.181h.679l-.544.415.209.665-.54-.409-.542.41.213-.666-.547-.415h.668l.208-.645.196.645ZM3.258 7.314h.676l-.545.416.21.665-.542-.41-.54.41.215-.665-.55-.416h.673l.202-.65.2.65ZM3.254 11.443h.679l-.544.414.209.665-.54-.408-.542.408.213-.665-.547-.414h.668l.208-.646.196.646ZM9.236 3.181h.68l-.545.415.21.665-.541-.409-.541.41.213-.666-.548-.415h.669l.207-.645.196.645ZM9.24 7.314h.676l-.545.416.211.665-.543-.41-.54.41.215-.665-.55-.416h.674l.201-.65.2.65ZM9.236 11.443h.68l-.545.414.21.665-.541-.408-.541.408.213-.665-.548-.414h.669l.207-.646.196.646ZM15.225 3.181h.673l-.542.415.216.665-.547-.409-.54.41.214-.666-.552-.415h.675l.203-.645.2.645ZM15.22 7.314h.678l-.545.416.216.665-.547-.41-.539.41.216-.665-.552-.416h.675l.2-.65.198.65ZM15.225 11.441h.673l-.542.417.216.665-.547-.409-.54.41.214-.666-.552-.417h.675l.203-.647.2.647ZM6.25 5.25h.674l-.545.417.212.664-.542-.409-.542.409.216-.664-.55-.417h.673l.203-.648.2.648ZM6.245 9.379h.679l-.544.415.209.665-.54-.409-.541.409.213-.665-.549-.415h.668l.21-.646.195.646ZM12.232 5.25h.675l-.544.417.21.664-.542-.409-.541.409.215-.664-.55-.417h.673l.203-.648.201.648ZM12.227 9.379h.68l-.545.415.21.665-.54-.409-.542.409.213-.665-.548-.415h.668l.21-.646.194.646ZM93.55 0H52.812v26.839h41.424V0h-.686Z" fill="#fff"/>
        <path d="M93.549.685H70.13v1.959H93.55V.685ZM93.549 4.603H70.13v1.959H93.55V4.603ZM93.549 8.502H70.13v1.958H93.55V8.502ZM93.549 12.425H70.13v1.956H93.55v-1.956ZM93.549 16.347h-40.05v1.958h40.05v-1.958ZM93.549 20.245h-40.05v1.957h40.05v-1.957ZM93.549 24.197h-40.05v1.957h40.05v-1.957Z" fill="#C42032"/>
        <path d="M70.13.685H53.498v13.696H70.13V.685Z" fill="#152C53"/>
        <path d="M56.066 3.181h.678l-.543.415.209.665-.54-.409-.542.41.213-.666-.547-.415h.668l.208-.645.196.645ZM56.07 7.314h.676l-.546.417.211.664-.542-.41-.54.41.215-.664-.55-.417h.673l.202-.65.2.65ZM56.066 11.443h.678l-.543.414.209.665-.54-.408-.542.408.213-.665-.547-.414h.668l.208-.645.196.645ZM62.048 3.181h.68l-.545.415.21.665-.541-.409-.542.41.214-.666-.548-.415h.668l.208-.645.196.645ZM62.051 7.314h.677l-.545.417.21.664-.542-.41-.54.41.214-.664-.549-.417h.674l.201-.65.2.65ZM62.048 11.443h.68l-.545.414.21.665-.541-.408-.542.408.214-.665-.548-.414h.668l.208-.645.196.645ZM68.037 3.181h.673l-.542.415.216.665-.547-.409-.54.41.214-.666-.552-.415h.675l.203-.645.2.645ZM68.032 7.314h.678l-.545.417.216.664-.547-.41-.538.41.215-.664-.552-.417h.675l.2-.65.198.65ZM68.037 11.441h.673l-.542.417.216.665-.547-.409-.54.41.214-.666-.552-.417h.675l.203-.647.2.647ZM59.061 5.25h.675l-.545.417.212.664-.542-.408-.542.408.216-.664-.55-.417h.672l.204-.648.2.648ZM59.056 9.379h.68l-.544.415.209.665-.54-.409-.542.41.214-.666-.549-.415h.668l.21-.646.194.646ZM65.044 5.25h.675l-.545.417.21.664-.541-.408-.541.408.215-.664-.55-.417h.673l.203-.648.201.648ZM65.039 9.379h.68l-.545.415.209.665-.539-.409-.541.41.212-.666-.548-.415h.668l.21-.646.194.646Z" fill="#fff"/>
        <path d="M72.15 29.833c-1.987-.456-4.7.047-7.263 1.523-4.01 2.31-6.135 6.13-4.746 8.531.888 1.535 2.995 2.118 5.447 1.737-1.12-.258-2.011-.82-2.513-1.687-1.389-2.4.736-6.22 4.746-8.531 1.448-.834 2.943-1.358 4.329-1.573" fill="#EE334E"/>
        <path d="M72.184 39.307c.597 1.945 2.39 4.038 4.953 5.515 4.01 2.31 8.386 2.237 9.776-.164.887-1.534.34-3.647-1.217-5.576.338 1.098.294 2.149-.207 3.015-1.39 2.401-5.766 2.475-9.776.164-1.448-.834-2.65-1.865-3.529-2.954Z" fill="#00A651"/>
        <path d="M69.465 34.595c-1.389 1.489-2.31 4.085-2.31 7.038 0 4.621 2.253 8.367 5.031 8.367 1.775 0 3.336-1.53 4.23-3.84-.784.84-1.718 1.329-2.72 1.329-2.778 0-5.03-3.746-5.03-8.367 0-1.668.294-3.222.8-4.527Z" fill="#0081C8"/>
        <path d="M106.314 6.109V.686h1.546v5.359c0 1.388.695 2.3 1.983 2.3 1.287 0 1.982-.913 1.982-2.3V.686h1.546V6.11c0 2.236-1.288 3.727-3.528 3.727-2.241 0-3.529-1.491-3.529-3.727ZM122.988.686v8.995h-1.507l-4.854-6.605v6.605h-1.493V.686h1.57l4.79 6.592V.686h1.494Zm3.394 0v8.995h-1.545V.686h1.545Zm.878 0h6.554v1.426h-2.498v7.569h-1.558V2.112h-2.498V.686Zm7.445 0h5.151v1.4h-3.605v2.288h3.322v1.362h-3.322V8.28h3.631v1.401h-5.177V.686Zm9.583 8.995h-2.949V.686h2.949c2.511 0 4.532 1.953 4.532 4.498 0 2.544-2.021 4.497-4.532 4.497Zm-.039-7.555h-1.364v6.116h1.364c1.713 0 2.988-1.35 2.988-3.059 0-1.71-1.275-3.058-2.988-3.058Zm9.567 4.819c.321.86.991 1.438 1.892 1.438.773 0 1.429-.423 1.429-1.182 0-.578-.36-.963-1.133-1.246l-1.069-.386c-1.326-.475-2.111-1.26-2.111-2.493 0-1.555 1.223-2.557 2.794-2.557 1.3.013 2.394.745 2.897 1.992l-1.326.668c-.271-.681-.799-1.221-1.558-1.221-.709 0-1.236.411-1.236 1.028 0 .54.386.874 1.12 1.157l1.107.424c1.404.54 2.099 1.336 2.099 2.531 0 1.709-1.391 2.737-3.039 2.737-1.506 0-2.73-.822-3.232-2.248l1.365-.643h.001Zm5.351-6.259h6.554v1.426h-2.498v7.569h-1.558V2.112h-2.497V.686h-.001Zm10.678 0 3.669 8.996h-1.622l-.914-2.275h-3.631l-.901 2.275h-1.584l3.669-8.996h1.314Zm-1.996 5.372h2.639l-1.326-3.341-1.313 3.34Zm4.812-5.372h6.554v1.426h-2.498v7.569h-1.558V2.112h-2.498V.686Zm7.445 0h5.151v1.4h-3.605v2.288h3.322v1.362h-3.322V8.28h3.631v1.401h-5.177V.686Zm7.204 6.259c.322.86.991 1.438 1.892 1.438.773 0 1.43-.423 1.43-1.182 0-.578-.361-.963-1.134-1.246l-1.068-.386c-1.327-.475-2.112-1.26-2.112-2.493 0-1.555 1.223-2.557 2.794-2.557 1.3.013 2.395.745 2.897 1.992l-1.326.668c-.271-.681-.799-1.221-1.558-1.221-.709 0-1.236.411-1.236 1.028 0 .54.386.874 1.12 1.157l1.107.424c1.404.54 2.099 1.336 2.099 2.531 0 1.709-1.391 2.737-3.039 2.737-1.506 0-2.729-.822-3.232-2.248l1.365-.643h.001Zm-76.617 6.424a4.653 4.653 0 0 1 4.674 4.664c0 2.596-2.086 4.652-4.674 4.652a4.65 4.65 0 0 1-4.674-4.652 4.653 4.653 0 0 1 4.674-4.664Zm0 7.825c1.739 0 3.09-1.413 3.09-3.161 0-1.76-1.351-3.174-3.09-3.174-1.738 0-3.09 1.414-3.09 3.174 0 1.748 1.352 3.161 3.09 3.161Zm7.559-7.659v7.556h3.167v1.439h-4.712v-8.995h1.545Zm6.803 8.995h-1.545v-3.957l-3.258-5.038h1.777l2.266 3.611 2.266-3.61h1.738l-3.244 5.037v3.957Zm14.117-8.995v8.995h-1.506v-6.399l-3.013 6.4h-1.017l-3-6.387v6.386h-1.507v-8.995h1.88l3.168 6.824 3.167-6.824h1.829-.001Zm7.902 2.75c0 1.735-1.275 2.737-3.116 2.737h-1.377v3.508h-1.546v-8.995h2.923c1.841 0 3.116 1.003 3.116 2.75Zm-4.493 1.363h1.403c.901 0 1.545-.502 1.545-1.363s-.644-1.362-1.545-1.362h-1.403v2.724Zm7.029-4.113v8.995h-1.545v-8.995h1.545Zm5.983-.167c.863 0 1.7.257 2.459.733v1.658c-.785-.592-1.558-.887-2.446-.887-1.739 0-3.065 1.388-3.065 3.16 0 1.749 1.326 3.15 3.065 3.15.875 0 1.673-.296 2.472-.862v1.658a4.864 4.864 0 0 1-2.498.707c-2.601 0-4.635-2.018-4.635-4.652 0-2.634 2.047-4.664 4.648-4.664Zm12.888 9.162-1.211-1.22c-.849.937-1.828 1.374-2.923 1.374-1.532 0-2.613-.989-2.613-2.403 0-1.04.553-1.876 1.764-2.686-.67-.68-.953-1.323-.953-2.017 0-1.247 1.017-2.21 2.369-2.21 1.287 0 2.266.912 2.266 2.107 0 .848-.438 1.53-1.506 2.3l1.545 1.543 1.494-1.735 1.043.86-1.545 1.813 2.291 2.274h-2.021Zm-2.228-2.159.013-.012-1.829-1.838c-.566.36-1.21.925-1.21 1.658 0 .655.567 1.156 1.288 1.156.618 0 1.185-.32 1.738-.963Zm-1.506-3.482c.747-.501 1.069-.938 1.069-1.388 0-.488-.413-.9-.94-.9-.503 0-.914.425-.914.939 0 .41.231.796.785 1.349Zm15.514-.604c0 1.735-1.275 2.737-3.116 2.737h-1.378v3.508h-1.545v-8.995h2.923c1.841 0 3.116 1.003 3.116 2.75Zm-4.494 1.363h1.404c.901 0 1.545-.502 1.545-1.363s-.644-1.362-1.545-1.362h-1.404v2.724Zm8.843-4.113 3.67 8.995h-1.623l-.914-2.274h-3.631l-.901 2.274h-1.584l3.67-8.995h1.313Zm-1.996 5.372h2.64l-1.327-3.341-1.313 3.34Zm8.04 3.623h-1.532v-8.995h2.82c1.815 0 3.09.99 3.09 2.737 0 1.337-.837 2.236-2.035 2.57l2.653 3.688h-1.816l-2.485-3.56h-.695v3.56Zm0-4.857h1.288c.901 0 1.545-.514 1.545-1.388 0-.875-.644-1.362-1.545-1.362h-1.288v2.75Zm10.413-4.138 3.67 8.995h-1.623l-.914-2.274h-3.631l-.901 2.274h-1.584l3.67-8.995h1.313Zm-1.996 5.371h2.639l-1.325-3.34-1.314 3.34Zm8.053-5.37v7.554h3.168v1.44h-4.713v-8.995h1.545Zm6.803 8.994h-1.545v-3.958l-3.258-5.037h1.777l2.266 3.61 2.266-3.61h1.739l-3.245 5.037v3.958Zm14.118-8.995v8.995h-1.507v-6.4l-3.013 6.4h-1.017l-3-6.386v6.386h-1.506v-8.995h1.88l3.167 6.824 3.167-6.824h1.829Zm7.901 2.75c0 1.734-1.274 2.737-3.116 2.737h-1.377v3.508h-1.545v-8.995h2.922c1.842 0 3.116 1.002 3.116 2.75Zm-4.493 1.362h1.403c.902 0 1.545-.501 1.545-1.362 0-.861-.643-1.362-1.545-1.362h-1.403v2.724Zm7.029-4.112v8.995h-1.545v-8.995h1.545Zm5.983-.167c.863 0 1.7.257 2.459.732v1.658c-.785-.591-1.557-.886-2.446-.886-1.738 0-3.064 1.387-3.064 3.16 0 1.748 1.326 3.15 3.064 3.15.875 0 1.674-.297 2.472-.862v1.658c-.824.488-1.674.707-2.498.707-2.6 0-4.635-2.018-4.635-4.652 0-2.634 2.047-4.665 4.648-4.665ZM110.668 26.217c.862 0 1.699.257 2.459.732v1.658c-.786-.591-1.558-.887-2.447-.887-1.738 0-3.064 1.388-3.064 3.161 0 1.748 1.326 3.149 3.064 3.149.875 0 1.674-.296 2.472-.861v1.658c-.824.488-1.673.707-2.497.707-2.601 0-4.636-2.018-4.636-4.652 0-2.635 2.048-4.665 4.649-4.665Zm7.901 0a4.652 4.652 0 0 1 4.673 4.664c0 2.595-2.086 4.652-4.673 4.652a4.65 4.65 0 0 1-4.674-4.652 4.66 4.66 0 0 1 4.674-4.664Zm0 7.825c1.738 0 3.089-1.413 3.089-3.161 0-1.76-1.351-3.174-3.089-3.174-1.739 0-3.091 1.413-3.091 3.174 0 1.748 1.352 3.161 3.091 3.161Zm16.056-7.659v8.996h-1.507v-6.4l-3.013 6.4h-1.017l-3-6.387v6.387h-1.506v-8.996h1.88l3.167 6.824 3.168-6.824h1.828Zm11.906 0v8.996h-1.507v-6.4l-3.013 6.4h-1.017l-3-6.387v6.387h-1.506v-8.996h1.88l3.167 6.824 3.168-6.824h1.828Zm3.408 0v8.996h-1.545v-8.996h1.545Zm.878 0h6.554v1.427h-2.498v7.569h-1.558v-7.57h-2.498v-1.426Zm7.056 0h6.554v1.427h-2.498v7.569h-1.558v-7.57h-2.497v-1.426h-.001Zm7.446 0h5.15v1.401h-3.605v2.288h3.322v1.362h-3.322v2.544h3.631v1.4h-5.176v-8.995Zm6.634 0h5.15v1.401h-3.605v2.288h3.322v1.362h-3.322v2.544h3.631v1.4h-5.176v-8.995Z" fill="#000F4D"/>
    </g>
    <defs>
        <clipPath id="a">
            <path fill="#fff" d="M0 0h247v50H0z"/>
        </clipPath>
    </defs>
</svg>
